<svg width="102.000000" height="424.000000" viewBox="0 0 102 424" fill="none" xmlns="http://www.w3.org/2000/svg" xmlns:xlink="http://www.w3.org/1999/xlink">
	<desc>
			Created with Pixso.
	</desc>
	<defs>
		<filter id="filter_5_1_dd" x="2.813049" y="6.759064" width="98.585175" height="416.930695" filterUnits="userSpaceOnUse" color-interpolation-filters="sRGB">
			<feFlood flood-opacity="0" result="BackgroundImageFix"/>
			<feColorMatrix in="SourceAlpha" type="matrix" values="0 0 0 0 0 0 0 0 0 0 0 0 0 0 0 0 0 0 127 0" result="hardAlpha"/>
			<feOffset dx="0" dy="4"/>
			<feGaussianBlur stdDeviation="1.93333"/>
			<feComposite in2="hardAlpha" operator="out" k2="-1" k3="1"/>
			<feColorMatrix type="matrix" values="0 0 0 0 1 0 0 0 0 1 0 0 0 0 1 0 0 0 0.55 0"/>
			<feBlend mode="normal" in2="BackgroundImageFix" result="effect_dropShadow_1"/>
			<feBlend mode="normal" in="SourceGraphic" in2="effect_dropShadow_1" result="shape"/>
		</filter>
	</defs>
	<g filter="url(#filter_5_1_dd)"/>
	<path id="Vector 2" d="M10 10C33.25 32.38 82.18 85.98 91.82 121.28C95.17 128.8 95.05 142.82 78.27 155.6C49.5 177.5 -12.59 229.13 35.09 277.18C59.69 299.73 88.41 311.59 56.68 341.4C44.8 353.33 21.5 363 31.08 391.9C35.56 405.42 51.49 410.2 56.68 " stroke="#2b95a6" stroke-opacity="1.000000" stroke-width="4.000000"/>
	<path id="Ellipse 2" d="M14 7C14 10.86 10.86 14 7 14C3.13 14 0 10.86 0 7C0 3.13 3.13 0 7 0C10.86 0 14 3.13 14 7Z" fill="#2b95a6" fill-opacity="1.000000" fill-rule="nonzero"/>
	<path id="Ellipse 4" d="M59 412C59 415.86 55.86 419 52 419C48.13 419 45 415.86 45 412C45 408.13 48.13 405 52 405C55.86 405 59 408.13 59 412Z" fill="#ffffff" fill-opacity="1.000000" fill-rule="nonzero"/>
</svg>
