<svg xmlns="http://www.w3.org/2000/svg" version="1.1" viewBox="0.00 0.00 104.00 67.00" width="104.00" height="67.00">
<path fill="#ffffff" d="&#10;  M 49.61 0.00&#10;  L 87.21 0.00&#10;  Q 93.74 8.23 99.30 17.78&#10;  A 0.41 0.41 0.0 0 1 98.95 18.40&#10;  L 88.54 18.24&#10;  Q 88.02 18.23 87.75 17.79&#10;  L 80.52 6.32&#10;  Q 79.12 4.11 76.61 4.84&#10;  L 76.03 5.01&#10;  Q 73.62 5.71 75.02 7.80&#10;  Q 87.78 26.86 101.18 45.82&#10;  Q 103.13 48.58 104.00 53.04&#10;  L 104.00 56.97&#10;  Q 102.68 63.19 97.01 64.95&#10;  C 90.38 67.01 82.25 66.14 75.02 65.96&#10;  C 67.14 65.76 59.54 66.26 51.92 65.96&#10;  A 1.62 1.62 0.0 0 1 50.63 65.24&#10;  L 35.04 41.81&#10;  Q 34.07 40.34 35.83 40.36&#10;  L 52.71 40.54&#10;  Q 53.31 40.54 53.66 41.04&#10;  L 67.68 61.25&#10;  Q 68.06 61.79 68.71 61.75&#10;  L 77.74 61.23&#10;  A 0.43 0.42 79.8 0 0 78.12 60.68&#10;  Q 76.89 56.76 74.41 53.25&#10;  Q 58.11 30.13 45.09 12.13&#10;  C 43.31 9.66 41.93 6.29 43.58 3.31&#10;  Q 45.21 0.35 49.61 0.00&#10;  Z"/>
<path fill="#fd1a1d" d="&#10;  M 18.57 34.99&#10;  L 32.68 14.72&#10;  A 0.82 0.82 0.0 0 1 34.02 14.72&#10;  L 48.41 35.21&#10;  A 0.82 0.82 0.0 0 1 47.73 36.50&#10;  L 19.24 36.28&#10;  A 0.82 0.82 0.0 0 1 18.57 34.99&#10;  Z"/>
<path fill="#fd1a1d" d="&#10;  M 0.00 65.72&#10;  L 0.00 64.59&#10;  L 14.90 41.80&#10;  A 3.92 3.92 0.0 0 1 18.12 40.03&#10;  Q 24.07 39.94 29.56 40.38&#10;  A 1.37 1.36 77.0 0 1 30.62 41.05&#10;  Q 35.98 50.25 42.65 59.83&#10;  Q 44.40 62.35 45.42 64.99&#10;  Q 45.70 65.69 44.95 65.69&#10;  L 0.00 65.72&#10;  Z"/>
</svg>