<svg width="1404" height="954" viewBox="0 0 1404 954" fill="none" xmlns="http://www.w3.org/2000/svg">
<path fill-rule="evenodd" clip-rule="evenodd" d="M130.92 1.57814C129.953 2.84507 128.212 7.20309 127.05 11.265C124.782 19.1837 119.596 24.0324 113.389 24.0324C111.272 24.0324 103.454 20.8134 96.0191 16.8812C87.5658 12.4092 81.877 10.3468 80.8449 11.3771C79.9357 12.2848 77.7083 27.5283 75.8951 45.253C73.3518 70.1202 73.0762 77.9426 74.684 79.5127C75.8302 80.6324 81.5084 83.5027 87.3007 85.8929C98.9398 90.6925 101.183 93.6679 103.416 107.266L104.853 116.026L124.161 119.071C225.593 135.075 221.83 134.732 224.795 128.238C228.242 120.683 250.634 27.8665 249.305 26.6346C249.019 26.37 224.298 20.505 194.371 13.6043C164.444 6.70368 138.321 0.65642 136.318 0.16577C134.315 -0.32488 131.886 0.311212 130.92 1.57814ZM258.687 31.6182C257.621 32.8991 254.73 44.9253 252.261 58.3411C241.096 119.024 225.279 186.823 209.029 243.651C203.983 261.299 200.758 275.548 201.62 276.397C202.461 277.224 223.683 283.052 248.784 289.352C273.884 295.651 302.893 303.097 313.249 305.899C326.924 309.598 332.507 310.449 333.643 309.013C336.081 305.93 338.831 292.118 343.581 259.119C345.987 242.405 347.955 228.479 347.955 228.174C347.955 227.87 339.688 227.353 329.583 227.023C316.117 226.585 310.502 225.716 308.551 223.766C305.985 221.198 302.778 209.623 298.689 188.162C296.798 178.231 296.605 177.972 292.07 179.209C276.506 183.455 275.439 180.294 282.839 151.842L288.791 128.951L281.924 121.614C264.614 103.12 264.704 103.264 263.501 91.8543C262.871 85.8754 261.776 76.9946 261.068 72.1196C260.105 65.4748 260.714 59.6746 263.498 48.9469C265.543 41.0772 267.214 33.4354 267.214 31.9634C267.214 28.6743 261.332 28.436 258.687 31.6182ZM282.46 37.5235C277.598 47.1122 275.551 60.542 276.825 74.5045C278.384 91.6002 281.83 99.3822 294.369 114.14L304.427 125.977L300.669 140.937C296.665 156.872 296.647 156.699 302.726 159.687C306.722 161.651 310.621 174.087 316.387 203.27L318.391 213.411L334.489 212.908L350.588 212.407L354.532 204.166L358.478 195.925L367.696 196.899C372.767 197.435 408.109 202.13 446.235 207.331C484.359 212.531 516.838 216.788 518.411 216.788C521.703 216.788 521.426 218.749 527.894 149.847C533.486 90.2649 534.022 74.0489 530.501 70.8001C528.842 69.2703 519.748 67.6459 505.927 66.4106C470.443 63.2371 310.205 39.6246 294.42 35.242C292.489 34.7075 289.568 33.8962 287.929 33.4424C285.949 32.8939 284.113 34.2642 282.46 37.5235ZM1344.87 53.75C1337.75 59.8253 1336.62 60.0426 1332.34 56.1682C1330.57 54.5684 1328.69 53.6799 1328.18 54.1951C1327.66 54.7103 1325.71 65.2856 1323.83 77.6955C1321.95 90.1055 1317.56 108.999 1314.07 119.683L1307.73 139.107L1320.29 171.376C1327.2 189.124 1333.73 205.92 1334.81 208.701L1336.78 213.756L1340.61 205.196C1342.72 200.488 1348.9 191.248 1354.35 184.663C1360.17 177.62 1364.24 170.993 1364.24 168.567C1364.24 158.534 1371.4 150.953 1374.14 158.085C1374.7 159.531 1376.44 160.714 1378.02 160.714C1381.27 160.714 1402.2 139.276 1403.77 134.334C1405.87 127.724 1393.41 111.822 1382.44 107.122C1377.72 105.097 1376.77 103.591 1375.71 96.3788C1373.46 81.1931 1357.5 48.5649 1352.32 48.5649C1351.56 48.5649 1348.21 50.899 1344.87 53.75ZM738.499 70.3235C738.015 71.8498 737.25 74.2802 736.797 75.7259C736.138 77.8339 732.482 78.3544 718.367 78.3544C708.683 78.3544 700.76 78.8345 700.76 79.4215C700.76 80.0086 702.719 99.1299 705.115 121.915C711.351 181.237 713.031 207.769 713.039 247.015L713.046 281.624L764.387 281.522C792.624 281.468 818.847 280.868 822.66 280.194L829.59 278.965L816.541 267.589C789.431 243.961 787.692 241.012 785.556 215.036C784.654 204.076 784.864 203.288 791.157 194.2C794.751 189.007 799.25 180.154 801.153 174.531C803.056 168.906 806.324 162.78 808.414 160.915C810.507 159.051 819.327 151.228 828.015 143.53C836.704 135.834 847.702 125.543 852.455 120.661L861.098 111.785L852.985 108.314C834.171 100.262 812.074 95.2187 776.441 90.8449C752.699 87.9308 752.534 87.88 750.289 82.6949C744.193 68.6202 740.323 64.5601 738.499 70.3235ZM542.056 82.2971C540.465 99.5137 537.687 144.263 537.141 161.456L536.644 177.094L541.91 178.447C544.806 179.192 578.5 182.213 616.787 185.164C655.072 188.113 688.954 191.037 692.077 191.661L697.757 192.795L696.528 179.821C694.062 153.792 686.698 87.8888 685.84 84.1756C685.113 81.0267 683.346 80.1838 675.746 79.3585C665.472 78.244 555.111 71.3276 547.755 71.3381C543.284 71.3451 543.021 71.8515 542.056 82.2971ZM68.3809 97.0499C67.9017 97.8507 65.4707 105.997 62.98 115.153C55.4974 142.656 42.8456 176.798 27.345 211.315C17.3225 233.633 17.1312 235.962 25.3089 236.037C26.9325 236.051 56.6875 242.748 91.4291 250.921C181.061 272.004 188.485 273.53 189.944 271.171C190.622 270.078 193.746 257.987 196.888 244.301C200.03 230.614 206.522 203.363 211.316 183.744C216.11 164.124 219.787 147.888 219.488 147.662C219.188 147.438 211.836 146.255 203.147 145.035C168.793 140.21 95.9032 129.023 93.0088 128.131C89.5387 127.062 88.4188 123.361 87.7589 110.786C87.3727 103.406 86.6144 101.715 82.9126 99.964C76.2269 96.8046 69.3551 95.4255 68.3809 97.0499ZM892.254 134.453C887.037 137.324 878.507 142.955 873.295 146.97C853.224 162.429 855.829 167.859 888.327 178.317C908.643 184.855 914.068 187.605 917.768 193.244L920.669 197.663L925.782 192.443C928.594 189.571 938.668 183.236 948.167 178.365L965.439 169.508L974.993 173.726C983.393 177.434 986.275 177.825 998.871 176.965C1006.75 176.425 1013.19 175.31 1013.19 174.487C1013.19 171.196 1000.58 159.341 992.287 154.834C975.403 145.661 956.473 146.965 943.316 158.208L936.479 164.05L923.495 157.172C916.355 153.387 908.709 150.271 906.508 150.245C901.026 150.182 899.799 145.799 903.242 138.59C908.593 127.386 906.517 126.605 892.254 134.453ZM1291.47 154.617C1286.69 158.011 1278.2 162.455 1272.61 164.49C1260.66 168.839 1261.03 166.999 1266 197.37C1271.37 230.282 1274.68 243.465 1277.3 242.459C1278.54 241.988 1285.34 239.88 1292.42 237.775C1306.97 233.447 1322.93 226.743 1324.42 224.325C1324.97 223.434 1322.41 213.294 1318.73 201.786C1315.05 190.28 1310.17 173.572 1307.89 164.656C1305.61 155.74 1302.94 148.447 1301.95 148.447C1300.97 148.447 1296.25 151.225 1291.47 154.617ZM828.93 157.412C821.347 160.431 818.753 164.162 815.764 176.341C813.01 187.559 811.565 190.589 803.659 201.704C799.991 206.861 799.524 217.783 802.499 228.812C804.316 235.55 813.499 245.477 830.186 258.738C839.442 266.096 844.135 275.669 845.701 290.385C847.333 305.723 850.163 310.819 858.297 313.074C865.418 315.049 897.76 315.536 908.125 313.824C915.857 312.549 916.074 311.652 917.789 273.977L918.955 248.337L913.557 246.458C906.645 244.052 906.176 242.572 908.421 230.204C910.466 218.94 908.211 206.223 903.184 200.679C901.681 199.021 894.028 195.571 886.175 193.011C860.93 184.78 852.58 180.369 846.661 172.14C843.679 167.996 840.456 162.546 839.498 160.032C837.634 155.136 835.791 154.679 828.93 157.412ZM1224.56 174.678C1213.86 178.999 1195.74 212.29 1195.74 227.633C1195.74 235.157 1191.56 243.711 1186.16 247.243C1183.07 249.264 1175.57 250.925 1165.05 251.918C1148.18 253.513 1134.26 257.734 1134.37 261.225C1134.4 262.324 1135.56 265.196 1136.94 267.605C1140.84 274.42 1140.04 280.292 1134.13 288.319C1124.25 301.732 1128.78 303.288 1160.11 297.24C1170.53 295.229 1191.7 291.342 1207.15 288.603L1235.23 283.625L1245.76 293.816C1257.46 305.138 1260.35 306.913 1269.87 308.629C1277.47 309.997 1277.43 313.332 1270.23 278.995C1267.81 267.43 1265.05 251.265 1264.11 243.073C1261.93 224.041 1254.07 176.803 1252.72 174.634C1251.47 172.607 1229.6 172.64 1224.56 174.678ZM954.1 187.098C942.261 193.988 931.229 205.121 929.8 211.62C929.114 214.739 929.841 220.336 931.631 225.719C934.327 233.82 934.408 238.126 932.512 272.357C929.76 322.076 932.019 337.698 941.961 337.698C945.199 337.698 946.782 336.06 949.15 330.251C953.454 319.696 952.959 303.451 947.623 280.069L943.068 260.114L950.825 240.309C960.538 215.509 963.497 209.779 966.597 209.779C969.92 209.779 975.667 202.21 978.229 194.46C980.143 188.67 979.983 187.843 976.379 184.931C970.789 180.411 964.542 181.019 954.1 187.098ZM986.865 193.11C986.865 194.544 984.455 203.227 981.512 212.404C977.699 224.284 974.971 229.864 972.038 231.784C967.817 234.544 961.851 246.56 959.727 256.574C958.974 260.126 960.254 270.696 963.208 285.316C966.279 300.524 967.673 312.312 967.278 319.754L966.68 331.067L1002.55 330.782C1022.27 330.626 1039 330.137 1039.71 329.699C1041.94 328.323 1051.86 296.643 1052.95 287.398C1054.16 277.204 1050.74 265.003 1043.84 254.854C1038.45 246.945 1035.42 246.684 1029.57 253.627C1023.88 260.373 1018.67 263.256 1016.35 260.939C1015.2 259.799 1016.17 254.715 1019.17 246.027C1027.95 220.638 1023.69 206.106 1004.57 196.198C992.652 190.023 986.865 189.014 986.865 193.11ZM535.161 196.563C534.529 198.206 534.011 204.02 534.011 209.484C534.013 214.946 532.742 235.429 531.187 255.002C529.634 274.574 528.645 290.843 528.993 291.153C529.339 291.465 553.923 293.844 583.622 296.443C635.479 300.978 681.74 306.372 689.547 308.794C692.206 309.619 693.614 309.037 694.529 306.736C695.231 304.972 696.681 281.198 697.751 253.904C699.366 212.763 699.298 204.033 697.349 202.831C694.785 201.248 674.478 200.058 605.976 197.477C581.359 196.55 555.613 195.292 548.764 194.682C538.01 193.726 536.153 193.981 535.161 196.563ZM366.927 214.876C363.533 223.485 346.2 330.988 346.2 343.435C346.2 347.085 347.4 348.093 353.66 349.696C364.586 352.495 504.225 369.773 505.513 368.485C506.791 367.209 514.066 285.724 515.802 253.248L516.991 231.006L512.776 230.067C506.11 228.581 421.245 216.86 380.717 211.827C368.851 210.353 368.698 210.388 366.927 214.876ZM1335.28 239.014C1330.92 239.999 1279.36 257.344 1278.45 258.134C1278.08 258.451 1280.25 271.362 1283.28 286.825C1286.3 302.289 1288.77 317.01 1288.77 319.54C1288.77 323.869 1289.17 324.088 1295.54 323.234C1307.88 321.582 1315.74 316.106 1340.13 292.181C1363.29 269.452 1366.88 264.737 1362.05 263.37C1360.84 263.028 1356.57 261.861 1352.57 260.776C1348.56 259.692 1343.48 257.354 1341.29 255.582L1337.3 252.36L1341.12 246.195C1343.22 242.805 1344.94 239.533 1344.94 238.923C1344.94 237.721 1340.84 237.76 1335.28 239.014ZM19.0427 249.889C18.7197 250.476 16.6924 256.844 14.537 264.039C12.3815 271.232 8.2286 281.843 5.30962 287.618L0 298.117L3.0436 314.259C5.68525 328.269 5.80109 332.331 3.91771 345.002C1.91322 358.486 2.03258 360.52 5.46935 371.614C7.51773 378.222 9.19223 386.409 9.19223 389.807C9.19223 393.206 10.9211 398.781 13.0345 402.196C16.2097 407.323 16.8065 410.631 16.4695 421.21C16.0394 434.652 17.3945 439.002 24.3277 446.438L28.5017 450.916L24.1118 456.854C18.6091 464.302 18.6249 467.074 24.2259 478.11C30.5676 490.6 34.9786 509.259 36.4319 529.728L37.6781 547.269L50.7389 553.137C77.2221 565.036 95.2046 587.078 108.355 623.765C111.032 631.233 113.708 637.345 114.303 637.345C115.341 637.345 153.321 643.296 164.818 645.26C171.519 646.405 170.431 649.159 183.615 597.669L193.1 560.621L173.787 527.576C110.93 420.034 89.3 382.077 89.4737 379.619C89.5826 378.098 95.5539 355.624 102.747 329.678C109.94 303.729 116.348 280.085 116.987 277.134L118.151 271.767L97.4601 266.853C45.3819 254.486 19.5815 248.904 19.0427 249.889ZM124.252 283.814C122.206 290.946 108.062 351.084 103.08 373.834C101.69 380.183 191.871 533.958 196.986 533.958C197.622 533.958 199.266 530.213 200.644 525.635C203.131 517.364 203.2 517.308 211.428 516.78C219.329 516.272 219.792 515.949 221.51 509.771C222.502 506.207 223.317 502.189 223.322 500.839C223.327 499.492 230.025 463.219 238.206 420.232C254.395 335.169 259.296 306.43 257.862 304.996C255.98 303.118 135.04 274.59 129.037 274.607C127.857 274.611 125.704 278.755 124.252 283.814ZM769.214 294.109C740.735 294.931 716.448 295.982 715.241 296.445C712.165 297.622 712.455 316.553 715.765 330.689C718.633 342.943 729.883 381.757 732.328 387.839C733.602 391.012 735.784 391.705 747.565 392.674C780.852 395.411 823.267 397.074 828.059 395.828C834.36 394.189 839.417 385.331 839.421 375.925C839.426 366.412 842.215 360.54 850.963 351.625L858.793 343.649L853.477 335.636C850.554 331.23 845.062 325.577 841.276 323.075C835.305 319.13 834.239 317.411 833.258 310.15C831.366 296.131 829.934 293.035 825.247 292.814C822.907 292.704 797.693 293.287 769.214 294.109ZM1214.17 300.134C1184.02 307.355 1136.39 316.67 1129.61 316.67C1125.36 316.67 1121.72 315.352 1119.06 312.861C1115.2 309.242 1115 309.221 1115 312.423C1115 316.667 1121.6 368.299 1123.05 375.373C1123.64 378.264 1125.25 382.403 1126.62 384.573C1128.99 388.312 1130.23 388.515 1150.7 388.515C1170.58 388.515 1173.77 388.034 1191.23 382.382C1201.65 379.009 1211.03 376.249 1212.06 376.249C1213.09 376.249 1220.24 374.549 1227.95 372.473C1238.22 369.706 1243.76 367.081 1248.67 362.651L1255.37 356.607L1249.9 348.995C1244.06 340.879 1244.1 341.495 1247.78 316.588C1248.6 311.07 1247.87 309.547 1241.32 303.007C1237.26 298.956 1233.44 295.707 1232.83 295.786C1232.22 295.865 1223.82 297.82 1214.17 300.134ZM526.348 310.767C524.842 318.246 519.706 367.81 520.369 368.471C520.684 368.784 529.607 369.893 540.202 370.934C550.795 371.975 561.588 373.673 564.184 374.707C569.127 376.675 570.134 380.597 571.323 402.534L571.749 410.419L601.588 411.7C618 412.405 652.28 414.194 677.764 415.675C703.249 417.155 724.489 417.981 724.961 417.508C727.173 415.3 701.206 335.774 695.303 326.679C688.78 316.63 684.441 315.48 648.102 314.185C619.406 313.162 573.754 310.083 539.024 306.833L527.361 305.739L526.348 310.767ZM273.401 314.48C269.618 329.499 240.885 478.462 240.885 483.06C240.885 485.033 326.1 497.298 353.212 499.227L361.1 499.788L365.815 468.667C372.514 424.438 378.347 370.815 376.625 369.287C375.82 368.572 366.111 366.259 355.05 364.146C343.988 362.033 333.82 359.376 332.453 358.244C329.992 356.204 330.262 343.7 333.069 329.813C334.884 320.832 331.542 318.685 308.427 313.979C296.861 311.624 284.522 309.689 281.006 309.68C275.491 309.663 274.449 310.322 273.401 314.48ZM1259.99 324.699C1257.36 331.54 1259.07 338.387 1265.3 345.973C1272.69 354.983 1272.46 355.984 1259.65 370.605C1250.87 380.623 1246.07 382.852 1219.44 389.288C1208.82 391.854 1198.78 394.347 1197.14 394.829C1195.49 395.316 1188.83 405.963 1182.22 418.685C1175.47 431.691 1167.19 444.886 1163.15 449.091C1157.67 454.792 1155.12 459.555 1152.22 469.544C1147.32 486.376 1143.78 490.6 1128.48 497.901C1113.84 504.884 1104.49 506.995 1099.65 504.409C1096.81 502.893 1095.27 503.557 1090.69 508.276C1087.65 511.409 1085.16 514.527 1085.16 515.205C1085.16 517.923 1104.58 516.034 1161.51 507.78C1238.16 496.667 1257.68 493.472 1259.64 491.727C1260.54 490.921 1258.01 486.06 1253.78 480.458C1243.86 467.344 1239.7 457.471 1238.51 444.197C1237.46 432.499 1239.88 422.833 1243.58 423.916C1244.78 424.266 1249.55 432.337 1254.18 441.851C1264.82 463.718 1266.87 462.791 1266.72 436.173C1266.62 417.21 1266.23 415.636 1256.01 392.458C1254.44 388.896 1259.4 389.947 1266.33 394.649C1269.88 397.058 1273.12 399.029 1273.54 399.029C1277.45 399.029 1281.66 371.63 1281.71 345.932L1281.75 327.005L1275.66 324.466C1267.7 321.146 1261.32 321.24 1259.99 324.699ZM905.246 324.568C904.281 324.903 896.724 326.085 888.455 327.193C869.327 329.755 868.035 330.505 870.891 337.39C873.618 343.964 870.399 351.736 861.296 360.543C855.985 365.684 855.221 367.509 855.221 375.058C855.221 381.171 853.428 387.66 849.078 397.277C845.699 404.747 842.935 412.217 842.935 413.873C842.935 418.079 848.476 425.432 865.427 443.714L880.049 459.484L878.909 470.892L877.768 482.3L887.12 489.871C895.431 496.602 904.702 507.798 906.552 513.337C908.836 520.176 923.588 499.916 930.323 480.691C934.513 468.731 934.639 467.116 933.555 439.333C932.368 408.918 928.584 367.885 925.486 351.845C924.477 346.614 921.724 338.138 919.372 333.007C915.175 323.856 912.271 322.122 905.246 324.568ZM1081.88 332.835C1071.71 337.717 1068.86 338.252 1050.28 338.746C1033.32 339.2 1011.91 341.704 1010.47 343.405C1010.14 343.789 1012.79 377.085 1016.27 416.519L1017.58 431.379L1035.13 437.863C1044.79 441.427 1056.96 445.343 1062.19 446.563L1071.69 448.779L1078.11 441.551C1081.65 437.575 1090.75 425.211 1098.34 414.073L1112.13 393.821L1108.14 366.562C1102.91 330.897 1101.84 327.146 1096.92 327.328C1094.8 327.405 1088.03 329.884 1081.88 332.835ZM972.009 346.658C957.187 348.813 945.009 353.194 942.9 357.13C941.636 359.488 941.962 371.134 943.988 395.973C948.602 452.582 946.514 472.939 933.444 498.687C930.838 503.822 929.06 508.374 929.491 508.807C931.187 510.498 977.185 485.692 983.316 479.78C986.895 476.328 993.149 467.869 997.21 460.984L1004.6 448.466L1000.62 398.966C997.818 364.037 995.947 348.767 994.263 347.087C991.636 344.464 987.622 344.387 972.009 346.658ZM393.827 376.51C392.287 380.548 379.309 468.011 376.781 491.377C375.653 501.805 375.772 502.28 379.771 503.194C386.835 504.81 508.055 521.399 534.011 524.303C539.321 524.897 545.838 525.798 548.492 526.304L553.319 527.227L553.336 505.621C553.345 493.739 554.16 462.421 555.144 436.028C556.131 409.633 556.601 387.704 556.192 387.296C555.783 386.886 547.269 385.78 537.271 384.837C527.271 383.895 513.958 382.014 507.683 380.658C501.408 379.302 481.661 377.351 463.801 376.326C445.942 375.301 423.257 373.961 413.391 373.349C395.545 372.242 395.445 372.257 393.827 376.51ZM1141.33 400.14C1129.26 401.49 1118.5 402.911 1117.43 403.296C1116.35 403.682 1108.55 416.395 1100.11 431.547L1084.75 459.099L1089.75 469.557C1099.28 489.461 1105.45 492.192 1122.57 484.084C1133.62 478.846 1134.93 476.867 1139.56 458.312C1144.84 437.2 1146.32 434.076 1151.07 434.076C1153.3 434.076 1156.4 432.797 1157.96 431.235C1161.08 428.127 1174.68 401.952 1174.68 399.068C1174.68 396.849 1169.15 397.026 1141.33 400.14ZM739.375 410.325C739.375 411.72 742.649 419.013 746.651 426.534C762.667 456.642 761.077 448.878 761.893 500.948L762.629 547.831L821.984 547.465C864.108 547.206 881.919 547.674 883.335 549.075C884.826 550.551 884.782 552.881 883.16 558.286C879.144 571.666 886.293 570.007 894.235 555.713C900.029 545.283 900.184 541.33 895.392 525.819C891.613 513.582 889.054 510.353 868.684 492.118L862.074 486.202L863.273 474.058L864.47 461.917L846.682 443.869L828.893 425.822V416.807V407.791H784.134C746.259 407.791 739.375 408.18 739.375 410.325ZM569.397 430.047C568.44 431.831 566.801 447.465 565.755 464.787C564.707 482.11 563.422 502.012 562.897 509.014C562.185 518.543 562.515 521.934 564.214 522.5C565.462 522.915 601.632 524.881 644.592 526.872C687.552 528.861 728.823 530.976 736.303 531.573L749.907 532.658L749.859 510.966C749.779 474.118 747.581 458.456 740.727 445.858C730.667 427.375 734.09 428.042 646.04 427.373C574.617 426.83 571.056 426.954 569.397 430.047ZM1009.05 466.932C991.806 492.933 995.166 490.425 949.636 511.28C920.734 524.518 913.145 529.22 913.145 533.89C913.145 540.464 923.534 541.004 932.373 534.889C939.489 529.966 948.53 528.71 1008.26 524.35C1045.79 521.611 1059.56 519.53 1064.1 515.909C1065.54 514.753 1071.35 508.031 1077 500.972L1087.28 488.138L1079.55 478.203C1075.3 472.739 1069.34 466.597 1066.3 464.556C1060.71 460.793 1028.72 449.847 1023.32 449.847C1021.55 449.847 1015.88 456.625 1009.05 466.932ZM238.452 501.288C237.025 502.39 234.524 508.024 232.893 513.806C229.035 527.492 227.884 528.701 218.692 528.701C209.134 528.701 208.571 529.875 206.057 555.042C203.24 583.235 187.603 645.276 181.663 651.828C178.2 655.65 177.152 654.674 203.593 672.262C241.099 697.211 274.526 713.03 307.498 721.434C322.232 725.191 331.361 725.914 332.886 723.451C334.152 721.406 344.957 636.863 351.395 578.642C354.272 552.62 357.03 527.99 357.519 523.907C358.314 517.302 357.981 516.388 354.5 515.615C349.749 514.562 311.218 509.056 274.235 504.148C259.271 502.16 245.682 500.254 244.037 499.909C242.394 499.564 239.881 500.184 238.452 501.288ZM1190.89 513.622C1128.55 526.115 1117.8 528.722 1113.71 532.36C1089.99 553.483 1064.1 578.814 1064.1 580.905C1064.1 584.686 1074.21 582.622 1087.6 576.107C1097.79 571.149 1099.99 570.757 1117.56 570.757C1133.8 570.757 1137.39 571.29 1142.53 574.461C1147.91 577.78 1150.07 578.038 1163.31 576.936L1178.09 575.707L1190.49 586.792C1205.98 600.636 1216.77 607.945 1219.93 606.734C1221.26 606.222 1223.67 605.795 1225.28 605.786C1227.15 605.773 1230.05 601.827 1233.28 594.895C1236.88 587.173 1242.39 580.037 1252.31 570.257C1265.35 557.392 1266.08 556.284 1263.45 553.383C1260.84 550.497 1261.11 549.729 1267.37 542.555C1271.08 538.309 1275.57 532.327 1277.36 529.264L1280.6 523.691L1274.59 511.74C1271.29 505.166 1267.4 499.635 1265.95 499.45C1264.5 499.262 1230.72 505.641 1190.89 513.622ZM371.761 522.13C369.813 531.354 342.689 716.352 342.689 720.421C342.689 723.794 343.828 725.18 347.323 726.056C353.937 727.712 361.009 724.784 361.679 720.111C362.427 714.899 367.563 713.852 381.375 716.089C400.927 719.256 404.809 718.744 407.096 712.695C409.501 706.334 409.647 706.327 461.168 710.056C506.838 713.361 507.245 713.357 508.371 709.628C510.291 703.264 520.887 539.548 519.471 538.134C517.58 536.247 390.091 518.187 378.654 518.187C373.789 518.187 372.432 518.964 371.761 522.13ZM1016.7 537.577C955.888 543.324 947.955 544.686 940.943 550.577C936.36 554.427 934.03 554.986 922.569 554.986H909.445L899.901 574.7C894.653 585.543 890.351 595.4 890.342 596.604C890.316 600.233 889.279 600.303 1029.54 587.127L1041.51 586.004L1063.69 561.746C1075.9 548.406 1086.55 536.303 1087.36 534.848C1089.4 531.207 1080.44 531.552 1016.7 537.577ZM535.301 536.094C531.812 538.404 538.173 542.129 547.646 543.323C552.215 543.899 566.615 545.21 579.648 546.237C592.68 547.263 605.894 548.502 609.013 548.99L614.682 549.874L615.156 586.014L615.63 622.152L648.697 637.582L681.764 653.011L710.131 651.145C734.562 649.538 739.584 649.655 746.328 651.996C750.633 653.491 754.384 654.488 754.66 654.213C754.935 653.936 754.358 635.244 753.377 612.672C752.396 590.101 751.411 564.536 751.188 555.862L750.784 540.091L659.511 538.873C609.311 538.202 561.316 536.981 552.854 536.157C544.392 535.334 536.493 535.306 535.301 536.094ZM534.446 558.852C533.414 560.097 530.497 586.353 527.964 617.193C522.039 689.344 520.113 708.51 517.951 716.887L516.188 723.708L497.829 722.522C487.729 721.87 468.637 720.19 455.399 718.788C426.641 715.74 415.265 715.546 413.7 718.078C413.059 719.11 416.998 724.304 422.451 729.621C430.95 737.902 434.643 743.904 448.28 771.578C465.96 807.459 474.066 818.272 488.759 825.583C501.725 832.033 504.267 831.585 509.389 821.947C511.772 817.461 516.826 811.547 520.619 808.805C526.827 804.315 528.916 803.816 541.499 803.816H555.48L562.093 811.039C572.534 822.441 589.347 851.784 601.565 879.923C624.515 932.776 635.236 944.196 670.152 952.973C674.796 954.14 678.809 954.337 679.692 953.438C680.527 952.584 680.673 944.001 680.016 934.364C677.252 893.878 683.544 879.444 712.318 860.263C718.191 856.347 729.788 847.336 738.089 840.236C746.387 833.137 758.414 824.272 764.814 820.536C771.214 816.8 777.522 811.671 778.833 809.141C780.144 806.609 782.605 796.032 784.302 785.637L787.386 766.735L783.279 753.296C776.658 731.641 773.181 712.688 771.81 690.807L770.529 670.326L762.413 666.847C744.843 659.316 737.857 658.45 716.29 661.126C680.178 665.608 681.024 665.777 631.633 644.206L602.001 631.265L602.854 597.352C603.452 573.494 603.131 563.248 601.769 562.791C600.704 562.433 587.59 561.307 572.627 560.287C557.663 559.269 543.374 558.018 540.872 557.508C538.234 556.971 535.536 557.536 534.446 558.852ZM821.872 560.325C802.081 560.979 781.348 561.62 775.797 561.753L765.704 561.995V608.46V654.924L771.677 657.768C778.263 660.903 781.501 666.329 781.501 674.226V679.401H803.926C816.26 679.401 832.942 680.226 840.999 681.234C849.054 682.243 855.832 682.834 856.064 682.548C856.294 682.262 855.939 677.314 855.276 671.55C853.587 656.878 854.965 651.422 870.011 613.247C877.324 594.692 883.305 578.811 883.305 577.952C883.305 577.095 881.141 575.851 878.496 575.188C872.572 573.704 871.08 571.502 871.045 564.186C871.021 558.72 870.754 558.503 864.437 558.815C860.817 558.994 841.662 559.673 821.872 560.325ZM1109.56 582.955C1105.12 583.754 1099.04 585.673 1096.05 587.216C1090.3 590.187 1081.65 597.539 1081.65 599.46C1081.65 601.352 1158.77 684.66 1160.52 684.654C1161.06 684.653 1163.73 681.144 1166.44 676.857C1169.16 672.569 1176.88 662.256 1183.59 653.94C1190.31 645.623 1198.51 633.164 1201.81 626.253L1207.81 613.689L1203.97 609.601C1201.85 607.351 1194.43 601.154 1187.47 595.829L1174.81 586.146L1159.66 588.294C1144.95 590.379 1144.34 590.325 1139.08 586.445C1132.99 581.949 1122.22 580.677 1109.56 582.955ZM1040.4 599.67C1039.43 600.001 1034.8 600.79 1030.1 601.423L1021.55 602.576L1022.75 611.637C1024.14 622.116 1037.71 696.579 1042.9 722.212C1044.84 731.783 1047.68 740.851 1049.2 742.364C1052.77 745.896 1076.74 745.632 1114.84 741.636C1143.95 738.584 1148.35 737.292 1148.35 731.801C1148.35 729.847 1150.07 720.773 1152.17 711.635L1155.99 695.021L1117.4 656.107C1096.17 634.704 1075.18 613.053 1070.74 607.994C1062.7 598.81 1062.66 598.794 1052.42 598.932C1046.77 599.008 1041.37 599.341 1040.4 599.67ZM967.068 606.674C956.661 607.857 947.716 609.257 947.188 609.783C946.661 610.31 947.079 643.857 948.118 684.334C949.155 724.809 950.005 761.886 950.005 766.728C950.005 777.829 952.957 781.036 963.183 781.036H970.845L967.445 768.792C963.417 754.279 963.239 750.592 966.439 747.941C969.799 745.157 983.906 742.912 1011.29 740.802C1024.24 739.805 1035.2 738.619 1035.66 738.165C1036.11 737.711 1034.9 730.809 1032.96 722.827C1031.03 714.845 1024.61 687.812 1018.7 662.754C1003.22 597.136 1005.99 604.007 995.132 604.286C990.102 604.415 977.473 605.49 967.068 606.674ZM908.757 612.935C881.931 616.023 881.78 616.14 871.294 641.947L864.086 659.691L866.538 673.613C872.042 704.871 871.907 709.9 864.965 731.836C860.027 747.442 859.125 752.166 860.875 753.275C862.111 754.057 872.279 754.709 883.472 754.724C906.664 754.754 907.895 755.375 911.33 768.769C912.443 773.106 913.756 778.036 914.245 779.721C915.3 783.352 919.899 783.596 932.51 780.69L941.615 778.593L940.521 767.11C937.544 735.841 935.859 709.145 933.909 662.316L931.775 611.06L926.409 611.29C923.458 611.418 915.514 612.157 908.757 612.935ZM810.463 694.396C795.982 695.617 783.427 696.686 782.563 696.77C779.611 697.059 782.976 720.558 788.383 737.399C796.257 761.932 796.64 767.376 791.943 788.059C787.369 808.202 787.304 808.041 800.66 809.854C805.086 810.457 814.854 812.223 822.367 813.781C834.036 816.201 836.679 816.266 840.498 814.224C846.877 810.816 851.448 811.643 870.132 819.583C894.841 830.081 926.732 836.842 929.611 832.191C930.092 831.411 926.202 823.724 920.966 815.106C914.716 804.818 910.284 794.921 908.061 786.292C906.201 779.064 903.845 771 902.827 768.373L900.977 763.596L875.558 763.992C858.227 764.262 849.496 763.745 848.113 762.37C846.58 760.844 847.611 754.854 852.336 737.837C860.105 709.849 861.26 702.588 858.915 696.486C857.173 691.951 856.466 691.683 846.928 691.919C841.353 692.06 824.943 693.172 810.463 694.396ZM1100.96 753.095C1056.39 760.682 1048.3 761.234 1042 757.115C1038.21 754.639 1034.35 754.386 1015.29 755.371C986.084 756.878 982.628 757.847 981.943 764.721C981.12 772.998 985.194 775.779 998.137 775.779C1011.19 775.779 1016.98 777.599 1032.73 786.667L1044.53 793.456L1056.18 785.493C1069.51 776.383 1076.07 775.475 1088.35 781.043C1097.35 785.122 1113.58 801.173 1118.57 810.944C1120.82 815.348 1123.09 825.757 1124.76 839.332C1128.24 867.581 1132.45 876.449 1153.37 899.675C1179.28 928.436 1197.25 942.249 1208.74 942.249C1212.54 942.249 1213.23 941.263 1214.26 934.341C1214.92 929.992 1215.15 915.959 1214.77 903.158L1214.09 879.882L1193.68 846.667C1169.09 806.658 1162.28 793.382 1152.87 767.036C1148.29 754.241 1144.72 746.807 1143.06 746.637C1141.62 746.49 1122.68 749.396 1100.96 753.095Z" fill="#2B95A6" fill-opacity="0.15"/>
</svg>
