<svg width="1065" height="615" viewBox="0 0 1065 615" fill="none" xmlns="http://www.w3.org/2000/svg">
<g clip-path="url(#clip0_3_226)">
<path fill-rule="evenodd" clip-rule="evenodd" d="M324.906 449.007C323.805 449.245 322.658 449.136 321.622 448.695C320.586 448.254 319.712 447.503 319.121 446.546C318.53 445.588 318.251 444.471 318.321 443.348C318.392 442.225 318.809 441.151 319.516 440.275C320.222 439.399 321.183 438.763 322.266 438.455C323.349 438.148 324.501 438.183 325.563 438.557C326.625 438.93 327.545 439.623 328.196 440.541C328.847 441.459 329.198 442.556 329.2 443.681C329.319 444.953 328.937 446.221 328.135 447.216C327.333 448.211 326.174 448.853 324.906 449.007ZM199.376 427.07C197.957 427.07 196.807 424.848 196.807 422.147C196.807 419.445 197.957 417.223 199.376 417.223C200.794 417.223 201.944 419.445 201.944 422.147C201.944 424.848 200.756 427.07 199.376 427.07ZM552.117 462.744C551.101 462.744 550.2 460.828 550.2 458.606C550.2 456.384 551.005 454.448 552.117 454.448C553.229 454.448 553.938 456.364 553.938 458.606C553.938 460.848 553.056 462.744 552.117 462.744ZM523.169 467.936C522.228 468.006 521.287 467.79 520.47 467.317C519.654 466.844 518.998 466.137 518.59 465.286C518.181 464.436 518.039 463.482 518.181 462.549C518.323 461.617 518.742 460.749 519.385 460.058C520.028 459.367 520.865 458.886 521.785 458.677C522.706 458.469 523.668 458.542 524.546 458.888C525.424 459.234 526.178 459.836 526.708 460.616C527.239 461.396 527.522 462.318 527.521 463.262C527.562 464.458 527.128 465.622 526.312 466.498C525.496 467.374 524.366 467.891 523.169 467.936ZM524.78 435.52C523.909 435.884 523.168 436.501 522.654 437.292C522.14 438.083 521.876 439.011 521.897 439.953C521.918 440.896 522.223 441.811 522.771 442.578C523.32 443.346 524.087 443.93 524.973 444.255C525.859 444.581 526.822 444.632 527.737 444.402C528.653 444.172 529.478 443.672 530.104 442.967C530.731 442.262 531.131 441.384 531.251 440.449C531.372 439.514 531.208 438.564 530.78 437.723C530.272 436.64 529.357 435.801 528.233 435.388C527.11 434.976 525.868 435.023 524.78 435.52ZM534.863 420.882C534.482 421.936 534.426 423.081 534.702 424.167C534.979 425.253 535.576 426.232 536.416 426.975C538.161 428.68 540.25 428.737 541.19 427.109C541.551 426.052 541.596 424.913 541.321 423.832C541.045 422.75 540.46 421.771 539.637 421.016C537.911 419.311 535.764 419.234 534.863 420.882ZM548.283 418.487C548.235 420.611 549.011 422.671 550.449 424.235C551.849 425.691 553.152 425.48 553.363 423.775C553.415 421.651 552.638 419.589 551.197 418.027C549.893 416.571 548.59 416.763 548.283 418.487ZM525.278 489.088C524.407 488.724 523.667 488.106 523.153 487.315C522.639 486.524 522.375 485.597 522.396 484.654C522.417 483.711 522.721 482.796 523.27 482.029C523.818 481.261 524.586 480.677 525.471 480.352C526.357 480.027 527.321 479.976 528.236 480.205C529.151 480.435 529.976 480.935 530.603 481.64C531.229 482.345 531.629 483.223 531.75 484.158C531.87 485.094 531.706 486.044 531.278 486.884C530.77 487.968 529.855 488.807 528.731 489.219C527.608 489.632 526.367 489.584 525.278 489.088ZM541.151 493.284C541.494 494.283 541.534 495.36 541.268 496.382C541.003 497.404 540.442 498.325 539.656 499.031C537.988 500.679 535.937 500.736 535.074 499.165C534.712 498.155 534.658 497.06 534.921 496.019C535.184 494.978 535.751 494.039 536.55 493.322C538.237 491.77 540.289 491.693 541.151 493.284Z" stroke="white" stroke-width="2"/>
<path fill-rule="evenodd" clip-rule="evenodd" d="M551.024 464.756C549.433 464.756 548.149 461.844 548.149 458.261C548.149 454.679 549.433 451.766 551.024 451.766C552.616 451.766 553.881 454.679 553.881 458.261C553.881 461.844 552.596 464.756 551.024 464.756Z" stroke="white" stroke-width="2"/>
<path fill-rule="evenodd" clip-rule="evenodd" d="M545.561 469.527C542.973 469.527 540.864 464.756 540.864 458.893C540.864 453.031 542.973 448.26 545.561 448.26C548.149 448.26 550.238 453.05 550.238 458.893C550.238 464.737 548.129 469.527 545.561 469.527Z" stroke="white" stroke-width="2"/>
<path fill-rule="evenodd" clip-rule="evenodd" d="M548.283 474.45C543.471 474.45 539.56 467.457 539.56 458.893C539.56 450.329 543.394 443.356 548.283 443.356C553.171 443.356 557.025 450.329 557.025 458.893C557.025 467.457 553.133 474.45 548.283 474.45Z" stroke="white" stroke-width="2"/>
<path d="M556.431 442.072C555.372 442.072 554.514 440.476 554.514 438.508C554.514 436.54 555.372 434.945 556.431 434.945C557.489 434.945 558.348 436.54 558.348 438.508C558.348 440.476 557.489 442.072 556.431 442.072Z" stroke="white" stroke-width="2"/>
<path fill-rule="evenodd" clip-rule="evenodd" d="M549.146 439.849C548.264 439.849 547.574 438.259 547.574 436.286C547.574 434.313 548.264 432.722 549.146 432.722C550.028 432.722 550.698 434.332 550.698 436.286C550.698 438.24 550.008 439.849 549.146 439.849ZM541.19 445.252C540.327 445.252 539.637 443.643 539.637 441.689C539.637 439.735 540.327 438.106 541.19 438.106C542.052 438.106 542.762 439.715 542.762 441.689C542.762 443.662 542.072 445.252 541.19 445.252ZM536.282 458.414C535.419 458.414 534.71 456.824 534.71 454.851C534.71 452.878 535.419 451.287 536.282 451.287C537.145 451.287 537.854 452.878 537.854 454.851C537.854 456.824 537.145 458.414 536.282 458.414ZM536.435 472.86C535.573 472.86 534.863 471.251 534.863 469.297C534.863 467.342 535.573 465.714 536.435 465.714C537.298 465.714 538.007 467.323 538.007 469.297C538.007 471.27 537.298 472.86 536.435 472.86ZM541.362 483.493C540.5 483.493 539.79 481.884 539.79 479.911C539.79 477.937 540.5 476.347 541.362 476.347C542.225 476.347 542.934 477.957 542.934 479.911C542.934 481.865 542.225 483.493 541.362 483.493ZM549.452 485.716C548.59 485.716 547.88 484.106 547.88 482.133C547.88 480.16 548.59 478.57 549.452 478.57C550.315 478.57 551.024 480.179 551.024 482.133C551.024 484.087 550.315 485.716 549.452 485.716ZM557.14 478.512C556.392 478.512 555.798 477.133 555.798 475.447C555.798 473.761 556.392 472.381 557.14 472.381C557.887 472.381 558.482 473.761 558.482 475.447C558.482 477.133 557.868 478.512 557.14 478.512ZM561.146 466.04C560.341 466.04 559.69 464.545 559.69 462.706C559.69 460.867 560.341 459.372 561.146 459.372C561.952 459.372 562.623 460.867 562.623 462.706C562.623 464.545 561.952 466.04 561.146 466.04ZM560.514 452.399C559.709 452.399 559.038 450.885 559.038 449.065C559.038 447.245 559.709 445.731 560.514 445.731C561.319 445.731 561.971 447.226 561.971 449.065C561.971 450.904 561.319 452.399 560.514 452.399ZM560.15 427.684C559.459 427.799 559.114 429.14 559.364 430.672C559.613 432.205 560.361 433.374 561.031 433.278C561.702 433.182 562.067 431.822 561.817 430.289C561.568 428.756 560.821 427.569 560.15 427.684ZM552.481 489.337C553.095 489.643 553.037 491.023 552.347 492.421C551.657 493.82 550.583 494.72 549.97 494.337C549.357 493.954 549.414 492.651 550.104 491.253C550.794 489.854 551.868 489.03 552.481 489.337Z" stroke="white" stroke-width="2"/>
<path fill-rule="evenodd" clip-rule="evenodd" d="M539.503 379.671C515.444 378.407 494.164 411.839 491.959 454.391C489.755 496.943 507.43 532.329 531.47 533.575C555.51 534.82 576.809 501.407 579.014 458.855C581.218 416.303 563.62 380.917 539.503 379.671Z" stroke="white" stroke-width="2"/>
<path d="M502.185 533.916C478.014 532.659 460.223 497.024 462.448 454.323C464.672 411.622 486.069 378.026 510.24 379.284C534.411 380.541 552.202 416.176 549.978 458.877C547.753 501.578 526.356 535.174 502.185 533.916Z" stroke="white" stroke-width="2"/>
<path d="M511.961 533.714C487.822 532.458 470.054 496.875 472.275 454.238C474.496 411.601 495.865 378.055 520.004 379.311C544.143 380.566 561.911 416.149 559.69 458.786C557.469 501.423 536.1 534.97 511.961 533.714Z" stroke="white" stroke-width="2"/>
<path d="M521.708 534.049C497.516 532.79 479.709 497.128 481.935 454.396C484.161 411.664 505.577 378.042 529.769 379.301C553.96 380.56 571.767 416.221 569.542 458.954C567.316 501.686 545.9 535.307 521.708 534.049Z" stroke="white" stroke-width="2"/>
<path fill-rule="evenodd" clip-rule="evenodd" d="M549.261 379.346C525.221 378.081 503.922 411.514 501.717 454.065C499.513 496.617 517.188 532.004 541.247 533.249C565.307 534.494 586.567 501.081 588.791 458.529C591.014 415.978 573.205 380.534 549.261 379.346Z" stroke="white" stroke-width="2"/>
<path fill-rule="evenodd" clip-rule="evenodd" d="M544.449 410.747C529.534 409.962 516.325 430.921 514.964 457.571C513.603 484.221 524.55 506.465 539.484 507.25C554.418 508.036 567.607 487.057 568.968 460.407C570.329 433.757 559.383 411.533 544.449 410.747ZM571.288 357.428C586.95 378.503 590.919 420.652 587.276 473.186L593.756 477.746C596.306 485.869 603.341 488.283 612.812 487.325L777.028 434.025L810.558 429.446L816.75 416.418L817.402 333.882L774.766 337.196L720.283 345.952L692.466 350.895L661.218 350.128L598.74 360.187L594.542 355.244L571.288 357.428Z" stroke="white" stroke-width="2"/>
<path d="M703.988 352.006L701.61 372.851L703.278 374.173L697.891 426.151L703.029 429.963L700.748 446.708L702.454 449.946L699.214 461.959M784.773 339.17L782.492 357.83L784.006 359.65L778.389 404.482L782.204 410.192L781.437 423.89L783.067 425.806L781.054 435.979M703.892 374.652L796.851 357.907" stroke="white" stroke-width="2"/>
<path d="M701.994 430.251L808.296 403.601" stroke="white" stroke-width="2" stroke-dasharray="0.57 0.57"/>
<path d="M697.412 426.055L776.664 404.731L809.427 403.218M592.261 478.972C655.121 463.108 717.235 444.199 780.134 425.327L817.478 418.851M581.199 360.187C600.255 397.738 602.536 437.761 594.158 479.374" stroke="white" stroke-width="2"/>
<path d="M346.032 316.045L420.031 289.74M326.477 419.79C363.17 299.3 543.624 300.028 631.043 293.131M448.595 354.094C486.189 335.683 574.566 302.365 632.078 294.549M318.541 304.818C347.105 281.406 430.824 249.257 486.649 228.91M232.215 300.641C277.151 266.998 362.576 244.18 421.564 228.431" stroke="white" stroke-width="2" stroke-dasharray="0.57 0.57"/>
<path d="M344.651 232.493C298.469 248.376 236.356 286.387 211.261 309.397" stroke="white" stroke-width="2"/>
<path d="M460.941 277.076L554.533 255.848" stroke="white" stroke-width="2" stroke-dasharray="0.57 0.57"/>
<path fill-rule="evenodd" clip-rule="evenodd" d="M208.846 277.804C208.137 275.639 208.118 272.535 212.086 271.711C218.661 271.385 220.54 269.604 222.841 263.894C224.854 253.453 222.131 248.088 217.089 248.069L204.034 247.897C196.519 248.491 193.682 252.016 192.532 256.403L191.209 266.787C190.96 271.27 194.219 275.16 202.846 275.332L223.933 299.491L231.027 293.744L208.846 277.804ZM348.486 223.737L348.371 194.003C348.444 193.304 348.376 192.598 348.17 191.927C347.964 191.255 347.624 190.633 347.171 190.096C346.718 189.559 346.161 189.119 345.534 188.803C344.907 188.487 344.222 188.3 343.52 188.255L333.935 189.884C332.912 190.317 332.031 191.028 331.391 191.935C330.751 192.842 330.377 193.91 330.312 195.018L329.928 237.953L344.747 232.205L348.486 223.737ZM354.026 230.826C422.37 228.45 474.802 228.91 543.816 229.121C554.475 228.948 563.62 225.902 569.716 217.108L585.302 149.439C586.759 135.53 578.726 129.897 567.588 129.437C482.892 133.269 400.457 137.101 387.556 143.538C373.484 148.098 361.196 189.309 348.697 226.343L349.463 230.922L354.026 230.826Z" stroke="white" stroke-width="2"/>
<path fill-rule="evenodd" clip-rule="evenodd" d="M378.143 198.486C383.3 183.676 390.412 158.252 398.138 156.336L428.236 159.574C433.623 159.574 435.617 165.533 434.907 172.717L434.332 208.698L377.951 212.319C374.807 212.664 375.382 203.621 378.143 198.486Z" stroke="white" stroke-width="2" stroke-dasharray="0.57 0.57"/>
<path fill-rule="evenodd" clip-rule="evenodd" d="M462.82 134.993L428.715 220.672L432.722 220.097L467.574 134.61L462.82 134.993Z" stroke="white" stroke-width="2"/>
<path d="M575.409 353.558L672.471 339.38L698.198 338.269L780.287 327.962L807.337 326.046M354.218 230.443C423.52 228.24 476.527 228.91 546.443 229.485C557.121 229.332 566.265 226.286 572.342 217.492L589.117 145.914C590.554 132.005 582.522 126.372 571.403 125.931C486.707 129.763 400.457 133.442 387.556 139.822C374.634 143.423 361.387 188.83 348.888 225.883L349.655 230.443H354.218ZM570.042 102.826C568.393 102.481 566.208 106.102 565.192 110.949C564.175 115.796 564.655 119.973 566.284 120.337C567.914 120.701 570.118 117.042 571.154 112.214C572.189 107.386 571.69 103.19 570.042 102.826ZM490.905 108.401C489.333 107.788 486.591 111.007 484.751 115.586C482.911 120.164 482.7 124.399 484.272 125.031C485.844 125.663 488.585 122.444 490.406 117.846C492.228 113.248 492.458 109.033 490.905 108.401ZM472.041 109.206C470.469 108.593 467.727 111.792 465.887 116.39C464.047 120.988 463.836 125.203 465.408 125.836C466.98 126.468 469.683 123.192 471.6 118.613C473.517 114.034 473.517 109.8 472.041 109.206ZM453.177 110.317C451.624 109.685 448.863 112.903 447.023 117.501C445.183 122.1 444.991 126.314 446.544 126.928C448.097 127.541 450.857 124.341 452.698 119.743C454.538 115.145 454.749 110.93 453.177 110.317ZM396.067 118.593C394.553 118 391.907 121.103 390.124 125.529C388.341 129.955 388.207 134.055 389.664 134.649C391.121 135.243 393.824 132.139 395.588 127.713C397.352 123.287 397.582 119.207 396.067 118.593Z" stroke="white" stroke-width="2"/>
<path fill-rule="evenodd" clip-rule="evenodd" d="M680.273 430.96L701.419 436.669L633.995 454.947L614.748 447.321L680.273 430.96ZM605.987 387.929L617.988 391.914L686.945 379.748L669.423 376.702L605.987 387.929Z" stroke="white" stroke-width="2" stroke-dasharray="0.57 0.57"/>
<path fill-rule="evenodd" clip-rule="evenodd" d="M661.793 353.079L667.333 373.847L605.795 384.499L598.932 363.176L661.793 353.079ZM669.806 129.667L619.119 121.295C606.313 118.727 599.814 125.376 595.117 141.086C580.03 181.645 578.208 239.371 582.56 288.073C597.609 312.979 582.656 329.705 601.213 349.745L673.238 339.859C677.182 300.786 678.578 261.497 677.417 222.243C676.987 191.247 674.445 160.317 669.806 129.667Z" stroke="white" stroke-width="2"/>
<path d="M584.266 129.667L588.465 128.518C595.711 115.93 605.795 108.746 621.132 111.39L778.102 140.32L802.87 143.366M657.039 142.983C646.629 138.404 629.164 136.871 612.85 136.526C607.827 137.503 600.907 155.091 594.944 189.06C589.922 216.534 592.184 231.65 604.53 231.707L638.059 229.428L638.826 164.287C638.955 162.768 639.971 161.753 641.874 161.241L662.828 162.007C662.924 153.597 661.179 147.102 657.039 142.983Z" stroke="white" stroke-width="2"/>
<path d="M549.126 229.907L547.209 232.378C554.667 240.865 554.015 252.207 555.223 264.737C556.315 276.233 556.545 291.924 556.545 291.924L566.457 305.048C569.371 312.539 568.489 325.356 569.505 335.51L575.026 347.331L575.409 354.363M550.066 229.907C555.606 233.106 557.734 241.095 558.635 254.468L579.608 250.847M599.603 240.003L610.837 240.176L620.748 244.372L622.665 249.698C630.142 251.384 639.229 243.279 649.255 232.761C644.482 232.761 640.302 231.784 637.753 227.435L639.095 165.36C639.319 164.39 639.847 163.515 640.602 162.864C641.357 162.213 642.299 161.819 643.293 161.739L666.528 162.122C667.787 162.307 668.964 162.858 669.911 163.706C670.859 164.554 671.536 165.663 671.857 166.893L671.474 227.991C671.417 229.055 671.054 230.08 670.428 230.944C669.803 231.807 668.941 232.471 667.947 232.857L656.233 233.049C642.2 249.755 632.941 257.61 623.471 256.557V260.178L612.62 268.167L602.517 267.975L600.044 266.462L599.603 240.003ZM672.183 289.491L671.608 316.524C670.688 323.517 662.023 325.758 662.023 321.869V293.303C663.211 288.054 671.378 285.736 672.183 289.491Z" stroke="white" stroke-width="2"/>
<path fill-rule="evenodd" clip-rule="evenodd" d="M669.231 294.338L669.806 314.148L667.141 318.152L664.113 318.21L667.793 313.382L667.237 294.625L669.231 294.338ZM668.081 293.399C667.942 293.399 667.805 293.372 667.677 293.319C667.549 293.266 667.433 293.188 667.335 293.09C667.237 292.993 667.16 292.876 667.107 292.749C667.054 292.621 667.026 292.484 667.026 292.345C667.026 292.207 667.054 292.07 667.107 291.942C667.16 291.814 667.237 291.698 667.335 291.6C667.433 291.502 667.549 291.425 667.677 291.372C667.805 291.319 667.942 291.292 668.081 291.292C668.36 291.292 668.629 291.403 668.826 291.6C669.024 291.798 669.135 292.066 669.135 292.345C669.135 292.625 669.024 292.893 668.826 293.09C668.629 293.288 668.36 293.399 668.081 293.399ZM672.471 332.177L671.704 335.989L659.32 337.33L660.662 333.326L672.471 332.177Z" stroke="white" stroke-width="2"/>
<path fill-rule="evenodd" clip-rule="evenodd" d="M769.82 273.742C777.105 272.956 778.485 280.275 777.622 290.678L776.3 310.297C774.996 316.715 772.331 320.126 768.478 320.949L739.338 323.421C734.316 324.36 732.149 320.145 733.242 307.806L734.584 281.923C735.135 280.271 736.03 278.755 737.21 277.474C738.389 276.193 739.827 275.176 741.428 274.489L769.82 273.742Z" stroke="white" stroke-width="2" stroke-dasharray="0.57 0.57"/>
<path fill-rule="evenodd" clip-rule="evenodd" d="M763.724 151.355C767.884 152.581 772.83 158.386 773.309 164.766L776.357 245.866C776.357 254.181 773.884 257.974 769.877 259.181H750.055C743.824 260.082 740.68 255.119 739.012 247.379L737.498 157.141C736.904 151.221 739.415 148.328 744.342 148.002L763.724 151.355Z" stroke="white" stroke-width="2"/>
<path fill-rule="evenodd" clip-rule="evenodd" d="M757.627 170.361C759.753 171.18 761.627 172.542 763.063 174.31C764.499 176.078 765.447 178.191 765.813 180.438L767.155 230.903C767.634 235.137 766.733 238.202 763.915 239.658L754.579 239.85C750.745 238.911 749.288 236.018 749.25 232.033L747.333 176.07C747.649 174.605 748.37 173.258 749.414 172.181C750.458 171.104 751.782 170.341 753.237 169.978L757.627 170.361Z" stroke="white" stroke-width="2" stroke-dasharray="0.57 0.57"/>
<path d="M744.38 9.771C751.503 13.4467 757.251 19.3185 760.771 26.5159L777.91 137.637C782.511 201.111 781.955 264.565 779.444 328.038" stroke="white" stroke-width="2"/>
<path d="M693.98 106.485L630.161 95.6219C603.936 91.7901 581.582 93.342 559.459 95.1621L394.879 112.194M724.96 53.1658C721.337 43.4715 736.003 41.1724 743.805 49.1808C753.851 61.9789 758.624 79.6434 761.538 98.9939C761.404 105.335 758.413 106.542 754.867 103.19L724.96 53.1658Z" stroke="white" stroke-width="2"/>
<path d="M670.65 59.0667C685.89 43.8354 716.755 23.2779 740.374 33.9494C756.515 43.3756 760.599 61.4424 762.094 78.877" stroke="white" stroke-width="2" stroke-dasharray="0.57 0.57"/>
<path d="M652.744 2.72046L585.647 50.3111C569.524 62.7644 553.056 70.6195 536.876 73.934L455.381 82.3831C439.681 83.9733 436.211 77.8807 453.1 59.1434C469.99 40.406 517.495 25.2705 515.213 25.2705M463.011 228.335L485.863 214.618L554.648 212.913L554.456 209.866L485.48 212.338L457.682 227.761L463.011 228.335ZM359.413 229.6L378.373 219.254L425.092 220.135L425.533 217.453L377.663 217.415L352.281 229.945L359.413 229.6Z" stroke="white" stroke-width="2"/>
<path d="M344.709 232.129L352.741 216.15C362.779 180.164 377.174 145.537 395.607 113.037L405.288 106.083C428.102 62.8602 461.727 36.6317 505.877 26.8223C599.526 8.25737 694.268 -11.4954 746.662 10.1541L762.669 10.9013L799.247 22.7223L806.494 326.18" stroke="white" stroke-width="2"/>
<path d="M489.87 388.446C490.253 373.349 492.534 360.896 487.205 338.192C482.24 329.207 468.686 326.467 452.525 325.624L447.962 281.444C441.847 268.358 431.437 258.242 412.152 254.027L353.087 247.552L303.032 250.636" stroke="white" stroke-width="2" stroke-dasharray="0.57 0.57"/>
<path d="M523.016 367.85L519.527 323.785C515.002 315.106 505.149 310.776 489.429 311.217L484.483 272.765C479.939 258.204 468.571 248.28 447.138 245.348L402.394 237.685L322.394 241.517" stroke="white" stroke-width="2" stroke-dasharray="0.57 0.57"/>
<path d="M550.449 357.217L547.018 313.152C542.493 304.454 538.736 300.507 523.016 300.967L520.351 264.028C520.83 245.808 501.602 233.623 474.629 234.715L410.618 231.669L336.12 235.156M465.849 397.202C467.766 380.955 468.514 363.942 464.315 348.845C462.398 335.683 435.137 337.886 400.323 348.845L402.605 295.2C398.234 285.065 396.47 274.125 375.555 266.251L316.49 259.775L277.976 263.166" stroke="white" stroke-width="2" stroke-dasharray="0.57 0.57"/>
<path fill-rule="evenodd" clip-rule="evenodd" d="M391.217 325.931C397.352 326.697 403.295 324.015 408.931 316.217C410.1 301.158 437.054 291.847 450.378 281.291C457.337 281.291 462.532 277.785 465.427 270.236C468.015 259.449 467.152 252.993 461.593 252.342C441.023 253.127 432.243 254.736 432.262 262.534C431.38 272.209 432.108 280.179 439.93 280.524L396.47 301.944C392.502 302.691 389.185 305.373 386.75 310.699C384.795 318.191 386.635 323.019 391.217 325.931Z" stroke="white" stroke-width="2"/>
<path fill-rule="evenodd" clip-rule="evenodd" d="M701.15 346.756L708.569 340.281L718.097 338.748L718.289 341.794L713.899 344.841L717.33 351.508L719.056 347.504L724.385 347.887L721.721 376.453L710.467 378.733L709.72 373.598L707.036 372.832L708.378 351.316L701.515 351.125L701.15 346.756Z" stroke="white" stroke-width="2" stroke-dasharray="0.57 0.57"/>
<path d="M608.46 93.0546C628.014 60.8102 644.137 17.2429 722.372 3.19946" stroke="white" stroke-width="2"/>
<path d="M569.965 93.4378C584.343 69.585 617.585 16.4574 684.989 0.536377M420.625 108.669C432.511 77.3826 448.423 40.0611 515.865 24.1401M485.767 102.193C491.005 93.6056 496.68 85.2924 502.772 77.2868C503.653 76.099 507.794 73.7808 508.714 72.5929C527.444 48.5102 554.187 20.4425 599.699 9.71348" stroke="white" stroke-width="2" stroke-dasharray="0.57 0.57"/>
<path d="M405.384 106.006C470.923 97.2696 537.471 90.5449 605.028 85.8318L624.467 88.1309" stroke="white" stroke-width="2" stroke-dasharray="0.57 0.57"/>
<path fill-rule="evenodd" clip-rule="evenodd" d="M857.047 421.955C852.005 421.955 847.902 408.18 847.902 391.301C847.902 374.422 852.005 360.647 857.047 360.647C862.089 360.647 866.172 374.422 866.172 391.301C866.172 408.18 862.069 421.955 857.047 421.955Z" stroke="white" stroke-width="2"/>
<path d="M688.67 126.18C694.552 197.354 696.325 268.807 693.98 340.185M853.404 399.501C851.986 399.501 850.835 395.976 850.835 391.684C850.835 387.392 851.986 383.867 853.404 383.867C854.823 383.867 855.954 387.373 855.954 391.684C855.954 395.995 854.804 399.501 853.404 399.501ZM797.637 24.1401L811.344 22.6074L816.673 323.421H807.529L797.637 24.1401Z" stroke="white" stroke-width="2"/>
<path fill-rule="evenodd" clip-rule="evenodd" d="M800.685 22.6074L845.64 19.5612L1176.14 173.752L1175.76 285.735L854.018 319.608L816.673 318.095L800.685 22.6074Z" stroke="white" stroke-width="2"/>
<path d="M1124.54 149.228L1125.67 275.121M1112.73 143.136L1112.71 277.018M1098.14 147.408L1099.58 278.704M1085.1 139.611L1086.9 283.13M1069.86 133.518L1071.57 298.112M1053.85 125.855L1054.62 290.104M1034.43 111.141L1035.95 301.331M1012.71 100.871L1014.99 303.821M989.095 89.8167L990.418 306.676M960.703 75.5433L962.984 310.297M930.03 62.4003L931.372 310.105M893.452 46.0386L895.542 315.048M850.586 293.725L1171.79 274.853M854.593 32.3209L856.682 301.331M831.55 23.8335L834.579 316.045M853.826 36.8999L1171.01 176.932M857.641 305.718L1171.04 281.022" stroke="white" stroke-width="2" stroke-dasharray="0.57 0.57"/>
<path fill-rule="evenodd" clip-rule="evenodd" d="M1153.66 304.032L1178.37 303.975L1178.44 308.745L1154.23 308.784L1153.66 304.032ZM957.08 310.01L946.018 336.085L947.36 338.94L940.305 359.133L943.737 358.942L943.928 361.796L937.449 362.179L936.49 373.981L941.072 376.453C942.989 378.484 929.838 379.173 923.358 377.966L923.167 375.112V369.211L917.262 362.927L917.818 358.75H923.167L921.633 336.66L918.968 336.277L916.879 328.613L922.783 328.805L920.31 313.478L957.08 310.01Z" stroke="white" stroke-width="2"/>
<path d="M817.076 322.885L818.034 337.158M575.62 354.286L581.333 359.995M943.066 318.574L948.683 317.712L949.066 321.524L943.066 335.414V318.574ZM839.525 347.849C829.268 347.121 820.181 366.337 819.242 390.764C818.303 415.192 825.856 435.558 836.112 436.286C846.369 437.014 855.436 417.798 856.395 393.37C857.353 368.943 849.781 348.557 839.525 347.849Z" stroke="white" stroke-width="2"/>
<path fill-rule="evenodd" clip-rule="evenodd" d="M844.892 347.849C834.579 347.121 825.453 366.433 824.514 390.975C823.575 415.518 831.147 436.018 841.461 436.727C851.775 437.435 860.9 418.142 861.839 393.6C862.779 369.057 855.206 348.577 844.892 347.849Z" stroke="white" stroke-width="2"/>
<path fill-rule="evenodd" clip-rule="evenodd" d="M850.241 347.849C839.946 347.121 830.84 366.414 829.882 390.918C828.923 415.422 836.515 435.903 846.809 436.612C857.104 437.321 866.229 418.047 867.169 393.542C868.108 369.038 860.536 348.577 850.241 347.849Z" stroke="white" stroke-width="2"/>
<path fill-rule="evenodd" clip-rule="evenodd" d="M855.609 347.849C845.295 347.12 836.151 366.452 835.211 391.013C834.272 415.575 841.844 436.094 852.177 436.803C862.51 437.512 871.616 418.2 872.575 393.638C873.534 369.077 865.923 348.577 855.609 347.849ZM897.842 406.417C893.279 406.417 889.579 393.964 889.579 378.694C889.579 363.425 893.279 350.971 897.842 350.971C902.405 350.971 906.085 363.425 906.085 378.694C906.085 393.964 902.385 406.417 897.842 406.417Z" stroke="white" stroke-width="2"/>
<path fill-rule="evenodd" clip-rule="evenodd" d="M894.545 386.109C893.279 386.109 892.225 382.928 892.225 379.039C892.225 375.15 893.279 371.969 894.545 371.969C895.81 371.969 896.845 375.15 896.845 379.039C896.845 382.928 895.81 386.109 894.545 386.109Z" stroke="white" stroke-width="2"/>
<path fill-rule="evenodd" clip-rule="evenodd" d="M882.007 339.438C872.748 338.786 864.542 356.144 863.68 378.215C862.817 400.286 869.642 418.698 878.921 419.349C888.199 420.001 896.385 402.643 897.248 380.572C898.11 358.501 891.286 340.089 882.007 339.438Z" stroke="white" stroke-width="2"/>
<path fill-rule="evenodd" clip-rule="evenodd" d="M886.857 339.438C877.54 338.786 869.297 356.24 868.434 378.407C867.571 400.574 874.435 419.1 883.771 419.771C893.107 420.442 901.331 402.969 902.194 380.783C903.056 358.597 896.174 340.089 886.857 339.438Z" stroke="white" stroke-width="2"/>
<path fill-rule="evenodd" clip-rule="evenodd" d="M891.707 339.438C882.39 338.786 874.147 356.202 873.303 378.369C872.46 400.536 879.285 419.005 888.64 419.656C897.995 420.307 906.181 402.873 907.025 380.725C907.868 358.578 901.024 340.089 891.707 339.438Z" stroke="white" stroke-width="2"/>
<path fill-rule="evenodd" clip-rule="evenodd" d="M896.538 339.438C887.221 338.786 878.959 356.24 878.096 378.445C877.234 400.65 884.116 419.177 893.433 419.828C902.75 420.48 911.012 403.026 911.875 380.821C912.738 358.616 905.875 340.089 896.538 339.438ZM1117.65 339.706C1114.68 339.706 1112.25 331.563 1112.25 321.563C1112.25 311.562 1114.68 303.438 1117.65 303.438C1120.63 303.438 1123.06 311.581 1123.06 321.563C1123.06 331.544 1120.72 339.706 1117.65 339.706Z" stroke="white" stroke-width="2"/>
<path fill-rule="evenodd" clip-rule="evenodd" d="M1116.91 295.87C1110.79 295.449 1105.4 306.868 1104.83 321.409C1104.25 335.951 1108.66 348.059 1114.87 348.481C1121.09 348.902 1126.38 337.484 1126.93 322.961C1127.49 308.439 1123 296.292 1116.91 295.87ZM1090.93 303.304L911.012 328L910.782 356.259L1090.7 321.888L1090.93 303.304Z" stroke="white" stroke-width="2"/>
<path fill-rule="evenodd" clip-rule="evenodd" d="M913.102 313.535L912.623 385.63L910.476 385.917L910.955 313.976L913.102 313.535Z" stroke="white" stroke-width="2"/>
<path fill-rule="evenodd" clip-rule="evenodd" d="M1091.06 324.858L910.648 363.099L910.054 387.067L1091.18 341.258L1091.06 324.858ZM309.454 319.378L315.378 316.639L333.187 320.336L331.27 332.656L312.694 334.073L306.732 339.495C280.736 340.396 255.412 337.139 230.49 335.223L229.243 329.724L214.099 328.498L215.671 316.447L227.346 313.075L230.49 316.754C256.466 317.75 282.73 320.413 309.454 319.378ZM326.995 345.243C284.954 346.929 252.325 342.522 212.239 337.579L211.741 351.565L227.211 352.964L228.783 359.727C253.054 363.75 273.585 365.935 299.063 365.206L304.661 361.087L323.238 360.551L326.995 345.243ZM320.726 371.069C276.998 371.893 245.462 366.203 209.785 360.168L209.383 375.686L224.297 376.261L226.215 384.346C248.19 389.18 270.639 391.532 293.14 391.358L298.891 387.316L317.295 386.952L320.726 371.069ZM314.802 397.106L312.655 411.667L292.181 412.299L287.465 416.131C264.46 416.131 246.21 412.299 225.544 407.567V401.34L209.555 400.056L209.306 385.151C244.465 391.569 274.141 398.849 314.802 397.106Z" stroke="white" stroke-width="2"/>
<path fill-rule="evenodd" clip-rule="evenodd" d="M233.078 300.794C265.246 298.361 292.277 301.388 318.445 304.818L346.434 315.662L317.391 424.312C268.831 422.779 232.081 415.997 205.951 408.065L211.242 310.374C217.281 306.293 212.795 307.098 233.078 300.794ZM349.214 420.499C353.681 410.192 345.917 385.266 455.554 350.742C456.014 372.046 447.464 391.358 425.705 407.701L349.214 420.499Z" stroke="white" stroke-width="2"/>
<path fill-rule="evenodd" clip-rule="evenodd" d="M425.59 404.635C430.843 386.952 440.639 369.172 455.017 351.795C451.337 375.341 443.707 394.673 425.59 404.635ZM379.35 389.155C394.802 376.817 419.839 365.724 446.448 357.217L436.518 374.192L379.35 389.155ZM426.932 381.645C403.736 384.499 402.988 390.362 401.742 394.041C400.668 404.022 403.659 404.52 412.592 403.084C417.615 402.413 424.977 403.313 426.587 392.086L426.932 381.645ZM394.706 391.071L377.817 394.558C374.2 398.625 371.691 403.553 370.532 408.87L391.792 404.425L394.706 391.071ZM258.709 303.687C267.837 303.348 276.978 303.803 286.027 305.048C286.29 306.139 286.267 307.28 285.962 308.36C285.656 309.44 285.078 310.424 284.283 311.217L251.693 310.45C249.641 309.416 249.718 303.975 258.709 303.687Z" stroke="white" stroke-width="2" stroke-dasharray="0.57 0.57"/>
<path fill-rule="evenodd" clip-rule="evenodd" d="M213.639 437.627L297.511 452.782C301.345 453.414 303.626 454.985 300.98 459.411L296.571 467.917C295.587 469.368 294.179 470.48 292.539 471.101C290.898 471.722 289.106 471.821 287.408 471.385C263.943 468.038 241.743 463.831 220.808 458.759C219.479 458.452 218.241 457.833 217.198 456.954C216.154 456.074 215.335 454.96 214.808 453.701L210.667 440.099C210.073 438.566 211.549 436.822 213.639 437.627Z" stroke="white" stroke-width="2"/>
<path fill-rule="evenodd" clip-rule="evenodd" d="M492.074 411.092L486.323 408.582C432.53 417.299 377.28 428.814 323.487 430.845C316.221 430.289 311.831 432.607 309.837 437.321C306.693 442.704 302.898 445.329 298.335 444.505L214.942 431.209C213.176 430.831 211.612 429.814 210.55 428.353C209.488 426.893 209.004 425.092 209.191 423.296C209.24 420.919 208.709 418.565 207.644 416.438C206.578 414.312 205.01 412.477 203.076 411.092L185.63 392.048C180.933 416.84 182.371 445.214 184.384 470.006C255.699 506.963 394.093 509.281 471.945 494.797L492.074 411.092Z" stroke="white" stroke-width="2"/>
<path d="M317.295 424.388C374.807 419.139 432.741 410.766 493.244 393.485C508.983 363.367 568.01 325.26 581.122 378.407M493.244 392.757C490.247 400.786 489.024 409.367 489.659 417.913M188.966 388.638L188.429 395.363M206.929 339.955C198.628 351.259 192.666 368.693 189.138 389.538L203.708 405.881L206.929 339.955Z" stroke="white" stroke-width="2"/>
<path d="M1178.58 329.935L335.315 613.007M188.38 480.5L98.5 505.451M306.559 528.229L203.037 556.968" stroke="#FF0000" stroke-width="2"/>
</g>
<defs>
<clipPath id="clip0_3_226">
<rect width="1179" height="615" fill="white" transform="matrix(-1 0 0 1 1179 0)"/>
</clipPath>
</defs>
</svg>
