<svg width="365" height="78" viewBox="0 0 365 78" fill="none" xmlns="http://www.w3.org/2000/svg">
<path fill-rule="evenodd" clip-rule="evenodd" d="M83.3132 63.1047L72.8911 63.6835L57.6302 41.6926L38.5224 41.671C38.429 43.3283 45.3422 52.5892 46.6796 54.6455C49.6311 59.1753 52.518 63.91 55.3545 67.843C61.8723 68.4649 70.5831 67.8502 77.3922 67.9005C91.1001 68.0084 110.129 71.4309 109.942 56.4107C109.859 49.7922 105.937 45.7945 102.748 41.1677C96.5322 32.1441 91.2942 24.8246 84.8735 15.1143C83.3887 12.8674 82.2743 10.9656 80.3833 8.7223C77.4784 5.28184 82.7811 3.9984 84.8447 5.51911C85.7686 6.20217 92.2397 17.0988 93.6382 18.8532L105.265 18.9107C105.121 17.6632 96.7839 5.44721 94.7958 2.56397C93.3362 0.450081 94.4076 0.227188 91.4884 0.0761954C88.0479 -0.0999624 83.9819 0.0869805 80.4659 0.0690053C73.1428 0.0294597 65.8305 0.166072 58.5109 0.122931C54.7936 0.101361 51.7271 -0.362401 49.1386 1.79823C42.9012 6.99308 50.7636 14.309 56.6559 22.6927L75.0122 48.6921C77.2843 51.8738 83.0544 59.0926 83.3132 63.1047Z" fill="white"/>
<path fill-rule="evenodd" clip-rule="evenodd" d="M2.5563 73.6217C-1.40558 73.5746 0.409757 76.795 0.447682 76.842C1.0115 77.5388 299.312 77.4572 356.47 77.2595C364.922 77.2312 365.665 78.1226 364.646 73.6751C349.856 72.8464 333.733 73.5872 318.795 73.5778C272.866 73.5495 226.628 73.267 180.759 73.5307C134.747 73.7943 88.739 73.3486 42.7236 73.515L2.5563 73.6248V73.6217Z" fill="#FC1C23"/>
<path fill-rule="evenodd" clip-rule="evenodd" d="M232.397 33.5744C232.4 32.46 232.285 31.0435 232.325 29.9973C232.404 27.8763 232.019 28.358 233.349 27.8727C234.263 27.5383 238.253 27.8151 239.314 28.038L239.181 37.8454L232.569 37.698L232.397 33.5744ZM215.097 68.0007L232.224 68.1121L232.476 51.352C237.153 50.3561 236.786 54.3682 237.858 58.0316C238.275 59.4588 238.868 61.3175 239.245 62.7231C239.508 63.6938 239.608 64.1647 239.86 65.1318L240.924 67.7382C242.657 68.6765 257.314 68.3027 260.384 68.069C260.154 65.0204 253.478 52.7864 252.871 47.8396C258.612 45.4992 257.03 39.7543 257.041 32.2586C257.048 26.6755 258.313 17.5225 254.071 15.0096C251.62 13.5572 220.163 13.9526 214.932 14.3481C214.77 23.2135 214.882 32.1652 214.867 41.0378C214.86 46.6856 214.137 63.6219 215.097 68.0007Z" fill="white"/>
<path fill-rule="evenodd" clip-rule="evenodd" d="M333.558 27.9661L340.353 27.8475C340.748 30.6265 340.806 52.4125 340.27 54.4221C331.451 55.0908 333.457 54.947 333.461 44.9923C333.461 39.837 333.076 32.9057 333.558 27.9661ZM320.343 14.5925C314.227 16.2354 315.831 25.5826 315.82 34.013C315.784 69.5897 313.742 68.1085 329.916 68.1049C333.989 68.1049 351.026 68.5543 353.528 67.7202C360.028 65.5524 358.001 54.9182 358.012 48.5011C358.062 11.8171 360.489 14.3948 343.969 14.3409C339.623 14.3265 323.222 13.8196 320.343 14.5925Z" fill="white"/>
<path fill-rule="evenodd" clip-rule="evenodd" d="M183.198 43.6983C182.825 40.9049 183.396 37.1948 183.705 34.5129C184.288 29.4619 183.252 27.8441 186.394 27.934L187.735 43.4251L183.195 43.7019L183.198 43.6983ZM161.862 68.0009L180.416 68.1195L181.469 57.2984H189.256C189.741 60.214 188.972 65.7719 190.45 67.6665C191.715 68.5293 205.862 68.2813 208.522 68.0224L200.095 14.3159L170.655 14.3087L161.858 68.0009H161.862Z" fill="white"/>
<path fill-rule="evenodd" clip-rule="evenodd" d="M270.328 67.5838C281.868 67.1811 294.879 68.2812 306.642 67.8175L306.714 36.6447L290.011 36.9467L289.939 52.8908C289.918 55.4253 290.065 53.4372 289.228 54.203L283.213 54.2785C282.199 53.4121 282.889 55.1089 282.375 52.9088C281.933 51.0214 282.472 27.9878 282.526 27.6499L306.581 27.4737L306.462 14.1613C298.186 14.2152 289.9 14.2547 281.617 14.2835C262.006 14.3518 264.99 11.6016 264.925 47.6204C264.914 54.0664 262.789 67.5083 270.328 67.5802V67.5838Z" fill="white"/>
<path fill-rule="evenodd" clip-rule="evenodd" d="M119.875 23.0374L119.857 57.2875C119.861 68.4825 121.712 68.0942 134.525 68.105L157.091 68.123L157.238 54.4186C151.637 53.8614 142.103 55.2922 137.225 54.1957C137.153 49.968 136.718 26.2406 137.811 28.0885L139.335 27.7901C140.058 27.7326 141.219 27.7937 141.985 27.7973L155.937 27.7002C158.745 27.107 157.451 17.0373 157.256 14.3302L126.594 14.2834C123.822 14.287 122.845 14.7616 121.27 16.3722C119.533 18.1517 119.879 20.0859 119.875 23.0374Z" fill="white"/>
<path fill-rule="evenodd" clip-rule="evenodd" d="M2.74449 67.735L49.7175 67.7889C49.6852 65.0531 40.5465 52.9773 37.7675 48.1995C36.6315 46.2438 34.8735 42.9184 33.8561 41.6169C18.8 40.8943 19.3501 40.6067 16.5963 45.2659C13.1666 51.0683 7.73443 58.4023 5.17116 62.7487C4.13219 64.5103 2.73011 65.6283 2.74449 67.735Z" fill="#FD1A1D"/>
<path fill-rule="evenodd" clip-rule="evenodd" d="M21.6692 37.3857L52.8599 37.6157C52.4932 35.2789 38.2819 15.4882 36.9949 14.7296C36.6174 14.9453 21.8094 35.3616 21.6692 37.3857Z" fill="#FD1A1D"/>
</svg>
