<svg width="38" height="38" viewBox="0 0 38 38" fill="none" xmlns="http://www.w3.org/2000/svg">
<circle cx="19" cy="19" r="19" fill="white"/>
<path fill-rule="evenodd" clip-rule="evenodd" d="M12.0881 7.22146C11.6374 7.60313 11.5396 7.9049 11.2989 9.65824C11.1479 10.7587 10.9679 13.1429 10.899 14.9561C10.8301 16.7692 10.7173 18.2529 10.6486 18.2529C10.2184 18.2529 10.0575 17.6503 10.0575 16.0401C10.0575 14.0634 9.9063 13.7927 8.85692 13.8919L8.21343 13.9527L8.1583 16.1353C8.10084 18.4062 8.17072 18.6258 8.95281 18.6323C9.14576 18.6338 9.63842 18.9 10.0476 19.2236C10.7565 19.7845 10.7975 19.8786 10.9271 21.2393C11.0564 22.599 11.0395 22.6894 10.5696 23.1523C9.91794 23.7937 9.78245 24.7903 9.91717 27.9503C10.0037 29.9871 10.0979 30.6084 10.3813 31.0199C10.577 31.3035 10.7814 31.7507 10.8359 32.0135C10.9281 32.4592 11.0131 32.4913 12.0977 32.4913C13.1558 32.4913 13.266 32.4525 13.3225 32.0613L13.3844 31.6313H19.0004H24.6161V32.1186C24.6161 32.5911 24.6501 32.6043 25.7322 32.5487C26.7572 32.4961 26.8538 32.4523 26.914 32.0135C26.9499 31.7507 27.1683 31.3352 27.3993 31.0902C27.798 30.6671 27.819 30.4687 27.819 27.1077C27.819 23.67 27.8067 23.5607 27.3822 23.2222C27.0006 22.9181 26.9455 22.6957 26.9455 21.4624C26.9455 20.08 26.9608 20.0359 27.6815 19.3429C28.0865 18.9535 28.6044 18.6351 28.8324 18.6351C29.6644 18.6351 29.8572 18.1726 29.8572 16.1752C29.8572 14.1085 29.738 13.8571 28.7575 13.8571C27.8896 13.8571 27.7219 14.2558 27.7219 16.3178C27.7219 17.3747 27.6386 18.0899 27.5061 18.1705C27.0903 18.4236 26.9513 17.756 26.9466 15.4817C26.9416 13.0017 26.4844 8.52815 26.1533 7.71837C25.792 6.83425 25.4087 6.78571 18.7944 6.78571C12.6291 6.78571 12.6004 6.78762 12.0881 7.22146ZM24.7638 7.86228C25.2945 8.00237 25.3349 8.15565 25.6389 11.1815L25.8788 13.5705H18.9386H11.9987L12.0053 13.0927C12.0089 12.8299 12.1295 11.6321 12.2731 10.4311C12.475 8.7443 12.6144 8.18986 12.886 7.99435C13.1585 7.79826 14.4835 7.74188 18.7812 7.74398C21.8303 7.74532 24.5223 7.79864 24.7638 7.86228ZM25.5381 14.786C25.9236 14.9901 25.9749 15.1663 25.9749 16.2855C25.9749 18.3756 26.4184 18.2529 18.8641 18.2529H12.3958L12.0924 17.7971C11.8554 17.4408 11.8177 17.0657 11.9202 16.0808C12.0658 14.6818 11.969 14.752 14.0369 14.5473C15.8592 14.3667 25.1091 14.5586 25.5381 14.786ZM25.8588 21.2967L25.7231 23.2893L26.2859 23.7319L26.8484 24.1746L26.8344 27.0073C26.8268 28.5653 26.7638 29.9861 26.6941 30.1646C26.5776 30.4634 25.958 30.485 18.8464 30.4389L11.1251 30.389L11.0721 27.2204L11.019 24.0519L11.5355 23.8202L12.052 23.5884L11.9561 21.4463L11.8601 19.3041H18.9272H25.9943L25.8588 21.2967ZM13.8379 21.5098C13.7352 21.6732 14.6718 27.364 14.8389 27.5918C14.9222 27.7055 15.7586 27.0064 18.0669 24.8934C19.2667 23.795 20.5762 22.6165 20.9764 22.2748C21.3769 21.9331 21.7044 21.5763 21.7044 21.4821C21.7044 21.234 13.994 21.2609 13.8379 21.5098ZM19.1809 24.9977C16.9922 27.0169 15.2015 28.7549 15.2015 28.8601C15.2015 29.0858 22.2659 29.222 22.6039 29.0028C22.8343 28.8536 23.9058 23.236 23.9254 22.0753C23.9476 20.7657 23.4075 21.0983 19.1809 24.9977ZM12.0604 24.677C11.9944 24.8467 12.1206 25.4058 12.3409 25.9193L12.7417 26.8533H12.1875C11.5768 26.8533 11.3589 27.0566 11.5217 27.4746C11.626 27.742 13.6942 28.2353 13.9883 28.0629C14.275 27.8947 14.1232 27.2667 13.4487 25.8291C12.7769 24.3974 12.3178 24.0165 12.0604 24.677ZM24.354 25.9455C23.9627 26.8126 23.643 27.6204 23.644 27.7407C23.6467 28.1111 24.1345 28.1705 25.2225 27.9325C26.0545 27.7506 26.2661 27.6277 26.2661 27.3267C26.2661 27.0566 26.1139 26.9317 25.7322 26.8885C25.4385 26.8552 25.1984 26.7977 25.1984 26.7608C25.1984 26.7241 25.3766 26.2847 25.5944 25.7844C26.0306 24.7825 25.9823 24.3687 25.4294 24.3687C25.1608 24.3687 24.8797 24.7812 24.354 25.9455Z" fill="#2B95A6"/>
</svg>
