<svg width="50" height="50" viewBox="0 0 50 50" fill="none" xmlns="http://www.w3.org/2000/svg">
<rect x="2" y="2" width="46" height="46" rx="15" stroke="white" stroke-width="4"/>
<path d="M25.0005 18.3246C23.6802 18.3246 22.3895 18.7161 21.2917 19.4496C20.1939 20.1831 19.3383 21.2257 18.833 22.4455C18.3278 23.6652 18.1956 25.0074 18.4532 26.3023C18.7107 27.5972 19.3465 28.7866 20.2801 29.7202C21.2137 30.6538 22.4032 31.2895 23.6982 31.5471C24.9931 31.8047 26.3353 31.6725 27.5552 31.1672C28.775 30.662 29.8176 29.8064 30.5511 28.7086C31.2846 27.6109 31.6761 26.3203 31.6761 25C31.6761 24.1234 31.5035 23.2553 31.168 22.4454C30.8325 21.6355 30.3408 20.8996 29.7209 20.2798C29.101 19.6599 28.3651 19.1682 27.5552 18.8327C26.7452 18.4973 25.8772 18.3246 25.0005 18.3246ZM25.0005 29.3336C24.1434 29.3336 23.3054 29.0795 22.5927 28.6033C21.88 28.1271 21.3246 27.4502 20.9966 26.6584C20.6685 25.8665 20.5827 24.9951 20.7499 24.1545C20.9172 23.3138 21.3299 22.5416 21.936 21.9356C22.5421 21.3295 23.3144 20.9168 24.1551 20.7495C24.9957 20.5823 25.8671 20.6682 26.659 20.9962C27.4509 21.3242 28.1278 21.8797 28.604 22.5923C29.0802 23.305 29.3344 24.1429 29.3344 25C29.3344 25.5691 29.2224 26.1327 29.0046 26.6585C28.7868 27.1843 28.4676 27.6621 28.0652 28.0645C27.6627 28.4669 27.1849 28.7862 26.6591 29.0039C26.1332 29.2217 25.5697 29.3337 25.0005 29.3336Z" fill="white"/>
<path d="M37.9223 19.6403C37.901 18.5619 37.6968 17.495 37.3185 16.4849C36.9915 15.6177 36.4798 14.8319 35.8189 14.182C35.17 13.5205 34.3844 13.0087 33.517 12.6825C32.5069 12.3039 31.4399 12.0997 30.3614 12.0787C28.9752 12.0156 28.5321 12 25.0016 12C21.4711 12 21.0276 12.0146 19.6406 12.0787C18.5622 12.1 17.4952 12.3042 16.4851 12.6825C15.6176 13.009 14.8316 13.5207 14.1821 14.182C13.5202 14.831 13.0084 15.6171 12.6826 16.4849C12.3043 17.495 12.1001 18.562 12.0788 19.6403C12.0147 21.0264 12 21.4696 12 25C12 28.5304 12.0147 28.9735 12.0788 30.3596C12.1001 31.438 12.3043 32.505 12.6826 33.5151C13.0085 34.3829 13.5203 35.1689 14.1821 35.818C14.832 36.4788 15.6178 36.9905 16.4851 37.3174C17.4952 37.6956 18.5622 37.8998 19.6406 37.9212C21.0276 37.9843 21.47 38 25.0005 38C28.531 38 28.9742 37.9853 30.3604 37.9212C31.4388 37.8999 32.5058 37.6957 33.5159 37.3174C34.3797 36.9835 35.1641 36.4728 35.8189 35.818C36.4738 35.1632 36.9845 34.3788 37.3185 33.5151C37.6972 32.5051 37.9014 31.4381 37.9223 30.3596C37.9854 28.9725 38 28.5304 38 25C38 21.4696 37.9854 21.0264 37.9223 19.6403ZM35.5835 30.2536C35.5735 31.078 35.4222 31.8946 35.1363 32.6678C34.9199 33.2284 34.5885 33.7376 34.1635 34.1624C33.7385 34.5872 33.2292 34.9183 32.6685 35.1345C31.8954 35.4211 31.0787 35.5723 30.2542 35.5817C28.8838 35.6446 28.4722 35.6573 25.0004 35.6573C21.5286 35.6573 21.1182 35.6446 19.7482 35.5817C18.9238 35.5722 18.1071 35.421 17.3339 35.1345C16.7692 34.9258 16.2583 34.5936 15.8386 34.1621C15.4064 33.7433 15.074 33.2326 14.8661 32.6678C14.5795 31.8948 14.4282 31.0781 14.4189 30.2536C14.3558 28.8833 14.3433 28.4718 14.3433 25.0001C14.3433 21.5284 14.3569 21.118 14.4189 19.7465C14.4293 18.9222 14.5805 18.1058 14.8661 17.3324C15.0748 16.7678 15.407 16.2569 15.8386 15.8371C16.2576 15.4047 16.7687 15.0724 17.3339 14.8647C18.107 14.5781 18.9237 14.4269 19.7482 14.4175C21.1186 14.3545 21.5302 14.3419 25.0004 14.3419C28.4707 14.3419 28.8827 14.3556 30.2542 14.4175C31.0786 14.4279 31.8951 14.5791 32.6685 14.8647C33.2294 15.0808 33.7388 15.4121 34.1638 15.8371C34.5889 16.2622 34.9202 16.7716 35.1363 17.3324C35.4229 18.1055 35.5742 18.9221 35.5835 19.7465C35.6466 21.118 35.6591 21.5285 35.6591 25.0001C35.6591 28.4717 35.6466 28.8822 35.5835 30.2536Z" fill="white"/>
<path d="M31.941 16.5006C31.5273 16.5007 31.1301 16.6651 30.8376 16.9576C30.5451 17.2501 30.3809 17.6468 30.3809 18.0605C30.3809 18.4741 30.5453 18.8708 30.8378 19.1633C31.1303 19.4557 31.527 19.6201 31.9407 19.6201C32.3543 19.6201 32.7511 19.4557 33.0436 19.1633C33.3361 18.8708 33.5004 18.4741 33.5005 18.0605C33.5005 17.6468 33.3362 17.2501 33.0438 16.9576C32.7513 16.6651 32.3546 16.5007 31.941 16.5006Z" fill="white"/>
</svg>
