<svg width="50" height="50" viewBox="0 0 50 50" fill="none" xmlns="http://www.w3.org/2000/svg">
<rect x="2" y="2" width="46" height="46" rx="15" stroke="white" stroke-width="4"/>
<path fill-rule="evenodd" clip-rule="evenodd" d="M37.0377 16.8692C37.3821 15.1903 35.733 13.7951 34.1343 14.4128L14.5377 21.9842C12.7524 22.674 12.6728 25.1705 14.4106 25.9725L18.6782 27.9422L20.7084 35.0477C20.8138 35.4168 21.1067 35.7026 21.4783 35.7989C21.8498 35.8951 22.2446 35.7876 22.516 35.5161L25.6433 32.3889L30.0239 35.6744C31.2956 36.6281 33.127 35.9334 33.4464 34.3763L37.0377 16.8692ZM15.3186 24.0053L34.9152 16.4339L31.3239 33.9411L26.1917 30.0918C25.7604 29.7683 25.1569 29.8112 24.7756 30.1924L23.4362 31.5318L23.8387 29.3185L31.7243 21.4328C32.1082 21.0491 32.1487 20.4405 31.8192 20.0092C31.4898 19.5779 30.8921 19.4569 30.4209 19.7262L19.5305 25.9492L15.3186 24.0053ZM20.8583 27.6859L21.5153 29.9852L21.7675 28.598C21.8069 28.3812 21.9115 28.1815 22.0673 28.0257L24.4722 25.621L20.8583 27.6859Z" fill="white"/>
</svg>
